<svg xmlns="http://www.w3.org/2000/svg" version="1.1" xmlns:xlink="http://www.w3.org/1999/xlink" xmlns:svgjs="http://svgjs.dev/svgjs" width="1500" height="1500" viewBox="0 0 1500 1500"><rect width="1500" height="1500" fill="#ffffff"></rect><g transform="matrix(0.6666666666666666,0,0,0.6666666666666666,249.39393939393938,672.2192231442314)"><svg viewBox="0 0 396 62" data-background-color="#ffffff" preserveAspectRatio="xMidYMid meet" height="234" width="1500" xmlns="http://www.w3.org/2000/svg" xmlns:xlink="http://www.w3.org/1999/xlink"><g id="tight-bounds" transform="matrix(1,0,0,1,0.2400000000000091,-0.08712714706632596)"><svg viewBox="0 0 395.52 62.17425429413262" height="62.17425429413262" width="395.52"><g><svg viewBox="0 0 493.0302613804913 77.50250011572953" height="62.17425429413262" width="395.52"><g><rect width="3.2086334186141894" height="67.29594800208062" x="403.9195639230738" y="5.1032760568244555" fill="#000000" opacity="1" stroke-width="0" stroke="transparent" fill-opacity="1" class="rect-qz-0" data-fill-palette-color="primary" rx="1%" id="qz-0" data-palette-color="#636365"></rect></g><g transform="matrix(1,0,0,1,0,10.711271723664506)"><svg viewBox="0 0 395.52 56.07995666840052" height="56.07995666840052" width="395.52"><g id="textblocktransform"><svg viewBox="0 0 395.52 56.07995666840052" height="56.07995666840052" width="395.52" id="textblock"><g><svg viewBox="0 0 395.52 35.579914616792024" height="35.579914616792024" width="395.52"><g transform="matrix(1,0,0,1,0,0)"><svg width="395.52" viewBox="3.8 -34.1 491.86 44.25" height="35.579914616792024" data-palette-color="#636365"><path d="M6.5-28.7Q5.3-28.7 4.55-29.45 3.8-30.2 3.8-31.4L3.8-31.4Q3.8-32.6 4.55-33.35 5.3-34.1 6.5-34.1L6.5-34.1Q7.7-34.1 8.45-33.35 9.2-32.6 9.2-31.4L9.2-31.4Q9.2-30.2 8.45-29.45 7.7-28.7 6.5-28.7L6.5-28.7ZM4.7 0L4.7-24.95 8.3-24.95 8.3 0 4.7 0ZM16.8 0L16.8-24.95 20.3-24.95 20.3-21.25Q21.45-23.05 23.3-24.2 25.15-25.35 27-25.35L27-25.35 30.4-25.35Q33.85-25.35 35.97-23 38.1-20.65 38.1-16.85L38.1-16.85 38.1 0 34.5 0 34.5-16.95Q34.5-19.25 33.35-20.7 32.2-22.15 30.3-22.15L30.3-22.15 27.1-22.15Q24.75-22.15 22.82-20.3 20.9-18.45 20.4-15.55L20.4-15.55 20.4 0 16.8 0ZM53.85 0Q51.75 0 50.8-2.55L50.8-2.55 42.2-24.95 46-24.95 53.7-3.95 53.75-3.95 61.45-24.95 65.25-24.95 55.55 0 53.85 0ZM77.54 0.4Q73.34 0.4 70.79-2.08 68.24-4.55 68.24-8.65L68.24-8.65 68.24-15.8Q68.24-20.1 70.79-22.73 73.34-25.35 77.54-25.35L77.54-25.35 81.64-25.35Q85.64-25.35 88.09-22.8 90.54-20.25 90.54-16.05L90.54-16.05 90.54-11.65 71.84-11.65 71.84-8.65Q71.84-6.05 73.42-4.42 74.99-2.8 77.54-2.8L77.54-2.8 81.34-2.8Q83.84-2.8 85.39-4.17 86.94-5.55 86.94-7.85L86.94-7.85 90.44-7.85Q90.44-4.15 87.94-1.88 85.44 0.4 81.34 0.4L81.34 0.4 77.54 0.4ZM71.84-14.75L86.94-14.75 86.94-16.05Q86.94-18.8 85.49-20.48 84.04-22.15 81.64-22.15L81.64-22.15 77.54-22.15Q74.99-22.15 73.42-20.4 71.84-18.65 71.84-15.8L71.84-15.8 71.84-14.75ZM106.34 0Q102.39 0 100.67-1.7 98.94-3.4 98.94-7.3L98.94-7.3 98.94-21.75 94.54-21.75 94.54-24.95 98.94-24.95 98.94-32.5 102.54-32.5 102.54-24.95 109.04-24.95 109.04-21.75 102.54-21.75 102.54-7.3Q102.54-5.1 103.42-4.15 104.29-3.2 106.34-3.2L106.34-3.2 109.04-3.2 109.04 0 106.34 0ZM123.14 0.4Q118.94 0.4 116.39-2.2 113.84-4.8 113.84-9.05L113.84-9.05 113.84-15.9Q113.84-20.15 116.41-22.75 118.99-25.35 123.24-25.35L123.24-25.35 127.34-25.35Q131.59-25.35 134.16-22.75 136.74-20.15 136.74-15.9L136.74-15.9 136.74-9.05Q136.74-4.8 134.14-2.2 131.54 0.4 127.24 0.4L127.24 0.4 123.14 0.4ZM123.14-2.8L127.24-2.8Q129.94-2.8 131.54-4.53 133.14-6.25 133.14-9.05L133.14-9.05 133.14-15.9Q133.14-18.7 131.54-20.43 129.94-22.15 127.34-22.15L127.34-22.15 123.24-22.15Q120.64-22.15 119.04-20.43 117.44-18.7 117.44-15.9L117.44-15.9 117.44-9.05Q117.44-6.2 118.99-4.5 120.54-2.8 123.14-2.8L123.14-2.8ZM143.34 0L143.34-24.95 146.84-24.95 146.84-21.1Q147.84-22.85 149.86-23.95 151.89-25.05 154.09-25.05L154.09-25.05 156.29-25.05 156.29-21.8 154.09-21.8Q150.89-21.8 148.91-19.78 146.94-17.75 146.94-14.4L146.94-14.4 146.94 0 143.34 0ZM169.13 10.15Q165.83 10.15 163.68 8.38 161.53 6.6 161.28 3.7L161.28 3.7 164.88 3.7Q165.08 5.2 166.26 6.13 167.43 7.05 169.13 7.05L169.13 7.05 173.03 7.05Q175.63 7.05 177.06 5.33 178.48 3.6 178.48 0.5L178.48 0.5 178.48-4.1Q177.28-2.3 175.46-1.15 173.63 0 171.83 0L171.83 0 168.63 0Q165.13 0 162.96-2.35 160.78-4.7 160.78-8.5L160.78-8.5 160.78-24.95 164.38-24.95 164.38-8.4Q164.38-6.05 165.56-4.63 166.73-3.2 168.63-3.2L168.63-3.2 171.73-3.2Q174.03-3.2 175.98-5.05 177.93-6.9 178.48-9.7L178.48-9.7 178.48-24.95 182.08-24.95 182.08 0.5Q182.08 5.05 179.68 7.6 177.28 10.15 173.03 10.15L173.03 10.15 169.13 10.15ZM230.03-25.35Q233.33-25.35 235.25-23.23 237.18-21.1 237.18-17.35L237.18-17.35 237.18 0 233.58 0 233.58-17.45Q233.58-19.65 232.58-20.9 231.58-22.15 229.93-22.15L229.93-22.15 227.08-22.15Q224.93-22.15 223.53-20.7 222.13-19.25 221.73-16.6L221.73-16.6 221.73 0 218.13 0 218.13-17.15Q218.13-19.5 217.2-20.83 216.28-22.15 214.68-22.15L214.68-22.15 211.83-22.15Q209.78-22.15 208.23-20.35 206.68-18.55 206.28-15.65L206.28-15.65 206.28 0 202.68 0 202.68-24.95 206.18-24.95 206.18-21.35Q207.18-23.25 208.68-24.3 210.18-25.35 211.83-25.35L211.83-25.35 214.78-25.35Q216.88-25.35 218.4-24.33 219.93-23.3 220.73-21.35L220.73-21.35Q221.88-23.35 223.48-24.35 225.08-25.35 226.98-25.35L226.98-25.35 230.03-25.35ZM251.68 0.4Q248.03 0.4 245.85-1.5 243.68-3.4 243.68-6.6L243.68-6.6 243.68-8.2Q243.68-11.35 245.93-13.25 248.18-15.15 251.88-15.15L251.88-15.15 255.08-15.15Q256.73-15.15 258.48-14.65 260.23-14.15 261.48-13.3L261.48-13.3 261.48-17.45Q261.48-19.55 260.18-20.88 258.88-22.2 256.73-22.2L256.73-22.2 252.73-22.2Q250.58-22.2 249.28-21.2 247.98-20.2 247.98-18.55L247.98-18.55 244.38-18.55Q244.38-21.6 246.68-23.48 248.98-25.35 252.73-25.35L252.73-25.35 256.73-25.35Q260.43-25.35 262.7-23.18 264.98-21 264.98-17.45L264.98-17.45 264.98 0 261.58 0 261.58-3.5Q260.43-1.7 258.55-0.65 256.68 0.4 254.68 0.4L254.68 0.4 251.68 0.4ZM251.68-2.75L254.78-2.75Q257.13-2.75 258.98-4.2 260.83-5.65 261.48-8.05L261.48-8.05 261.48-9.9Q260.48-10.85 258.7-11.43 256.93-12 255.08-12L255.08-12 251.88-12Q249.83-12 248.55-10.95 247.28-9.9 247.28-8.2L247.28-8.2 247.28-6.6Q247.28-4.85 248.48-3.8 249.68-2.75 251.68-2.75L251.68-2.75ZM272.27 0L272.27-24.95 275.77-24.95 275.77-21.25Q276.92-23.05 278.77-24.2 280.62-25.35 282.47-25.35L282.47-25.35 285.87-25.35Q289.32-25.35 291.45-23 293.57-20.65 293.57-16.85L293.57-16.85 293.57 0 289.97 0 289.97-16.95Q289.97-19.25 288.82-20.7 287.67-22.15 285.77-22.15L285.77-22.15 282.57-22.15Q280.22-22.15 278.3-20.3 276.37-18.45 275.87-15.55L275.87-15.55 275.87 0 272.27 0ZM308.07 0.4Q304.42 0.4 302.25-1.5 300.07-3.4 300.07-6.6L300.07-6.6 300.07-8.2Q300.07-11.35 302.32-13.25 304.57-15.15 308.27-15.15L308.27-15.15 311.47-15.15Q313.12-15.15 314.87-14.65 316.62-14.15 317.87-13.3L317.87-13.3 317.87-17.45Q317.87-19.55 316.57-20.88 315.27-22.2 313.12-22.2L313.12-22.2 309.12-22.2Q306.97-22.2 305.67-21.2 304.37-20.2 304.37-18.55L304.37-18.55 300.77-18.55Q300.77-21.6 303.07-23.48 305.37-25.35 309.12-25.35L309.12-25.35 313.12-25.35Q316.82-25.35 319.1-23.18 321.37-21 321.37-17.45L321.37-17.45 321.37 0 317.97 0 317.97-3.5Q316.82-1.7 314.95-0.65 313.07 0.4 311.07 0.4L311.07 0.4 308.07 0.4ZM308.07-2.75L311.17-2.75Q313.52-2.75 315.37-4.2 317.22-5.65 317.87-8.05L317.87-8.05 317.87-9.9Q316.87-10.85 315.1-11.43 313.32-12 311.47-12L311.47-12 308.27-12Q306.22-12 304.95-10.95 303.67-9.9 303.67-8.2L303.67-8.2 303.67-6.6Q303.67-4.85 304.87-3.8 306.07-2.75 308.07-2.75L308.07-2.75ZM336.77 10.15Q333.47 10.15 331.32 8.38 329.17 6.6 328.92 3.7L328.92 3.7 332.52 3.7Q332.72 5.2 333.89 6.13 335.07 7.05 336.77 7.05L336.77 7.05 340.92 7.05Q343.52 7.05 344.94 5.33 346.37 3.6 346.37 0.5L346.37 0.5 346.37-3.35Q345.27-1.85 343.49-0.93 341.72 0 340.07 0L340.07 0 336.42 0Q333.87 0 331.87-1.2 329.87-2.4 328.77-4.55 327.67-6.7 327.67-9.55L327.67-9.55 327.67-15.4Q327.67-19.85 330.24-22.6 332.82-25.35 337.02-25.35L337.02-25.35 340.52-25.35Q342.12-25.35 343.82-24.45 345.52-23.55 346.47-22.15L346.47-22.15 346.47-24.95 349.97-24.95 349.97 0.5Q349.97 5.05 347.57 7.6 345.17 10.15 340.92 10.15L340.92 10.15 336.77 10.15ZM336.52-3.2L340.07-3.2Q342.57-3.2 344.34-5.18 346.12-7.15 346.37-10.2L346.37-10.2 346.37-16.35Q346.17-18.9 344.49-20.53 342.82-22.15 340.52-22.15L340.52-22.15 337.12-22.15Q334.47-22.15 332.87-20.3 331.27-18.45 331.27-15.4L331.27-15.4 331.27-9.55Q331.27-6.75 332.74-4.98 334.22-3.2 336.52-3.2L336.52-3.2ZM365.87 0.4Q361.67 0.4 359.12-2.08 356.57-4.55 356.57-8.65L356.57-8.65 356.57-15.8Q356.57-20.1 359.12-22.73 361.67-25.35 365.87-25.35L365.87-25.35 369.97-25.35Q373.97-25.35 376.42-22.8 378.87-20.25 378.87-16.05L378.87-16.05 378.87-11.65 360.17-11.65 360.17-8.65Q360.17-6.05 361.74-4.42 363.32-2.8 365.87-2.8L365.87-2.8 369.67-2.8Q372.17-2.8 373.72-4.17 375.27-5.55 375.27-7.85L375.27-7.85 378.77-7.85Q378.77-4.15 376.27-1.88 373.77 0.4 369.67 0.4L369.67 0.4 365.87 0.4ZM360.17-14.75L375.27-14.75 375.27-16.05Q375.27-18.8 373.82-20.48 372.37-22.15 369.97-22.15L369.97-22.15 365.87-22.15Q363.32-22.15 361.74-20.4 360.17-18.65 360.17-15.8L360.17-15.8 360.17-14.75ZM412.51-25.35Q415.81-25.35 417.74-23.23 419.66-21.1 419.66-17.35L419.66-17.35 419.66 0 416.06 0 416.06-17.45Q416.06-19.65 415.06-20.9 414.06-22.15 412.41-22.15L412.41-22.15 409.56-22.15Q407.41-22.15 406.01-20.7 404.61-19.25 404.21-16.6L404.21-16.6 404.21 0 400.61 0 400.61-17.15Q400.61-19.5 399.69-20.83 398.76-22.15 397.16-22.15L397.16-22.15 394.31-22.15Q392.26-22.15 390.71-20.35 389.16-18.55 388.76-15.65L388.76-15.65 388.76 0 385.16 0 385.16-24.95 388.66-24.95 388.66-21.35Q389.66-23.25 391.16-24.3 392.66-25.35 394.31-25.35L394.31-25.35 397.26-25.35Q399.36-25.35 400.89-24.33 402.41-23.3 403.21-21.35L403.21-21.35Q404.36-23.35 405.96-24.35 407.56-25.35 409.46-25.35L409.46-25.35 412.51-25.35ZM435.26 0.4Q431.06 0.4 428.51-2.08 425.96-4.55 425.96-8.65L425.96-8.65 425.96-15.8Q425.96-20.1 428.51-22.73 431.06-25.35 435.26-25.35L435.26-25.35 439.36-25.35Q443.36-25.35 445.81-22.8 448.26-20.25 448.26-16.05L448.26-16.05 448.26-11.65 429.56-11.65 429.56-8.65Q429.56-6.05 431.14-4.42 432.71-2.8 435.26-2.8L435.26-2.8 439.06-2.8Q441.56-2.8 443.11-4.17 444.66-5.55 444.66-7.85L444.66-7.85 448.16-7.85Q448.16-4.15 445.66-1.88 443.16 0.4 439.06 0.4L439.06 0.4 435.26 0.4ZM429.56-14.75L444.66-14.75 444.66-16.05Q444.66-18.8 443.21-20.48 441.76-22.15 439.36-22.15L439.36-22.15 435.26-22.15Q432.71-22.15 431.14-20.4 429.56-18.65 429.56-15.8L429.56-15.8 429.56-14.75ZM454.56 0L454.56-24.95 458.06-24.95 458.06-21.25Q459.21-23.05 461.06-24.2 462.91-25.35 464.76-25.35L464.76-25.35 468.16-25.35Q471.61-25.35 473.73-23 475.86-20.65 475.86-16.85L475.86-16.85 475.86 0 472.26 0 472.26-16.95Q472.26-19.25 471.11-20.7 469.96-22.15 468.06-22.15L468.06-22.15 464.86-22.15Q462.51-22.15 460.58-20.3 458.66-18.45 458.16-15.55L458.16-15.55 458.16 0 454.56 0ZM492.96 0Q489.01 0 487.28-1.7 485.56-3.4 485.56-7.3L485.56-7.3 485.56-21.75 481.16-21.75 481.16-24.95 485.56-24.95 485.56-32.5 489.16-32.5 489.16-24.95 495.66-24.95 495.66-21.75 489.16-21.75 489.16-7.3Q489.16-5.1 490.03-4.15 490.91-3.2 492.96-3.2L492.96-3.2 495.66-3.2 495.66 0 492.96 0Z" opacity="1" transform="matrix(1,0,0,1,0,0)" fill="#000000" class="wordmark-text-0" data-fill-palette-color="primary" id="text-0"></path></svg></g></svg></g><g transform="matrix(1,0,0,1,163.310208,43.979478539865816)"><svg viewBox="0 0 232.209792 12.100478128534704" height="12.100478128534704" width="232.209792"><g transform="matrix(1,0,0,1,0,0)"><svg width="232.209792" viewBox="4.75 -39.15 933.53 48.65" height="12.100478128534704" data-palette-color="#636365"><path d="M17 0.6L17 0.6Q13.35 0.6 10.58-0.68 7.8-1.95 6.3-4.28 4.8-6.6 4.75-9.85L4.75-9.85 9.5-9.85Q9.5-6.8 11.55-5.05 13.6-3.3 16.95-3.3L16.95-3.3Q19.8-3.3 21.53-4.38 23.25-5.45 23.25-7.3L23.25-7.3Q23.25-8.75 22.28-9.63 21.3-10.5 19.7-11 18.1-11.5 16.18-11.88 14.25-12.25 12.33-12.78 10.4-13.3 8.8-14.13 7.2-14.95 6.2-16.35 5.2-17.75 5.2-20L5.2-20Q5.2-22.35 6.55-24.18 7.9-26 10.38-27.05 12.85-28.1 16.25-28.1L16.25-28.1Q21.4-28.1 24.53-25.73 27.65-23.35 27.9-19.2L27.9-19.2 23.15-19.2Q23-21.6 21.18-22.93 19.35-24.25 16.25-24.25L16.25-24.25Q13.35-24.25 11.83-23.1 10.3-21.95 10.3-20.2L10.3-20.2Q10.3-18.85 11.3-18.07 12.3-17.3 13.9-16.88 15.5-16.45 17.43-16.13 19.35-15.8 21.28-15.3 23.2-14.8 24.8-13.93 26.4-13.05 27.38-11.55 28.35-10.05 28.35-7.65L28.35-7.65Q28.35-3.8 25.25-1.6 22.15 0.6 17 0.6ZM51.55 0L46.5 0 46.5-27.5 51.55-27.5 51.55 0ZM61 0L36.35 0 36.35-4.1 61-4.1 61 0ZM49-23.4L40-23.4 40-27.5 49-27.5 49-23.4ZM51.8-32.2L46.15-32.2 46.15-37.65 51.8-37.65 51.8-32.2ZM95 0L90.34 0 90.34-20.1Q90.34-21.9 89.72-22.9 89.09-23.9 87.8-23.9L87.8-23.9Q86-23.9 84.57-21.6 83.15-19.3 82.59-14.35L82.59-14.35 82.15-18.6Q82.3-23.1 84.27-25.6 86.25-28.1 89.15-28.1L89.15-28.1Q91.84-28.1 93.42-26.13 95-24.15 95-20.5L95-20.5 95 0ZM72.15 0L67.5 0 67.5-27.5 71.95-27.5 72.15-22.15 72.15 0ZM83.55 0L78.95 0 78.95-20.1Q78.95-22 78.27-22.95 77.59-23.9 76.25-23.9L76.25-23.9Q74.34-23.9 73-21.5 71.65-19.1 71.09-14.35L71.09-14.35 71-18.75Q71.09-21.7 72.05-23.8 73-25.9 74.5-27 76-28.1 77.7-28.1L77.7-28.1Q80.5-28.1 82.02-26.08 83.55-24.05 83.55-20.55L83.55-20.55 83.55 0ZM115.34-28.1L115.34-28.1Q119.04-28.1 121.82-26.28 124.59-24.45 126.19-21.2 127.79-17.95 127.79-13.75L127.79-13.75Q127.79-9.6 126.19-6.35 124.59-3.1 121.82-1.25 119.04 0.6 115.34 0.6L115.34 0.6Q112.54 0.6 110.22-0.55 107.89-1.7 106.39-3.7L106.39-3.7 106.39 8.9 101.34 8.9 101.34-27.5 106.14-27.5 106.29-23.75Q107.79-25.75 110.14-26.93 112.49-28.1 115.34-28.1ZM114.24-3.65L114.24-3.65Q116.79-3.65 118.69-4.95 120.59-6.25 121.64-8.53 122.69-10.8 122.69-13.75L122.69-13.75Q122.69-16.75 121.64-19.03 120.59-21.3 118.69-22.58 116.79-23.85 114.24-23.85L114.24-23.85Q111.64-23.85 109.52-22.38 107.39-20.9 106.39-18.35L106.39-18.35 106.39-9.25Q107.39-6.65 109.52-5.15 111.64-3.65 114.24-3.65ZM148.79 0L143.74 0 143.74-36.75 148.79-36.75 148.79 0ZM158.99 0L133.59 0 133.59-4.1 158.99-4.1 158.99 0ZM146.24-32.65L137.24-32.65 137.24-36.75 146.24-36.75 146.24-32.65ZM181.54 0L176.49 0 176.49-27.5 181.54-27.5 181.54 0ZM190.99 0L166.34 0 166.34-4.1 190.99-4.1 190.99 0ZM178.99-23.4L169.99-23.4 169.99-27.5 178.99-27.5 178.99-23.4ZM181.79-32.2L176.14-32.2 176.14-37.65 181.79-37.65 181.79-32.2ZM212.74 0L207.69 0 207.69-30.6Q207.69-33.15 208.64-35.05 209.59-36.95 211.46-38.05 213.34-39.15 216.09-39.15L216.09-39.15 224.29-39.15 224.29-35.05 217.59-35.05Q216.24-35.05 215.11-34.7 213.99-34.35 213.36-33.43 212.74-32.5 212.74-30.75L212.74-30.75 212.74 0ZM221.39-23.4L201.19-23.4 201.19-27.5 221.39-27.5 221.39-23.4ZM223.74 0L198.94 0 198.94-4.1 223.74-4.1 223.74 0ZM235.43-27.5L241.18-13.9 243.78-7.05 246.38-13.95 252.13-27.5 257.38-27.5 244.63 2.55Q243.48 5.2 242.16 6.73 240.83 8.25 239.18 8.88 237.53 9.5 235.33 9.5L235.33 9.5 230.43 9.5 230.43 5.4 234.98 5.4Q236.28 5.4 237.21 4.83 238.13 4.25 238.88 3.13 239.63 2 240.38 0.2L240.38 0.2 241.13-1.6 230.18-27.5 235.43-27.5ZM279.03 0L273.98 0 273.98-27.5 279.03-27.5 279.03 0ZM288.48 0L263.83 0 263.83-4.1 288.48-4.1 288.48 0ZM276.48-23.4L267.48-23.4 267.48-27.5 276.48-27.5 276.48-23.4ZM279.28-32.2L273.63-32.2 273.63-37.65 279.28-37.65 279.28-32.2ZM321.18 0L316.13 0 316.13-17.35Q316.13-20.25 314.48-22.03 312.83-23.8 310.18-23.8L310.18-23.8Q307.13-23.8 304.75-21.58 302.38-19.35 300.98-14.65L300.98-14.65 300.18-20.3Q301.73-24.2 304.65-26.15 307.58-28.1 311.03-28.1L311.03-28.1Q314.13-28.1 316.4-26.78 318.68-25.45 319.93-23.1 321.18-20.75 321.18-17.55L321.18-17.55 321.18 0ZM301.58 0L296.53 0 296.53-27.5 301.33-27.5 301.58-21.3 301.58 0ZM348.88-23.55L348.88-23.55 349.03-27.5 353.78-27.5 353.78-3Q353.78 3.1 350.5 6.3 347.23 9.5 340.63 9.5L340.63 9.5Q336.98 9.5 334.3 8.5 331.63 7.5 330.1 5.53 328.58 3.55 328.38 0.6L328.38 0.6 333.63 0.6Q333.88 2.85 335.65 4.08 337.43 5.3 340.88 5.3L340.88 5.3Q344.78 5.3 346.75 3.3 348.73 1.3 348.73-2.4L348.73-2.4 348.73-6.05Q347.33-3.95 345-2.75 342.68-1.55 339.83-1.55L339.83-1.55Q336.28-1.55 333.55-3.25 330.83-4.95 329.28-7.98 327.73-11 327.73-14.8L327.73-14.8Q327.73-18.9 329.33-21.88 330.93-24.85 333.73-26.48 336.53-28.1 340.08-28.1L340.08-28.1Q342.93-28.1 345.23-26.85 347.53-25.6 348.88-23.55ZM340.93-5.5L340.93-5.5Q343.63-5.5 345.75-7.08 347.88-8.65 348.73-11.35L348.73-11.35 348.73-18.3Q347.88-21 345.75-22.58 343.63-24.15 340.93-24.15L340.93-24.15Q338.48-24.15 336.65-22.95 334.83-21.75 333.8-19.68 332.78-17.6 332.78-14.85L332.78-14.85Q332.78-12.15 333.8-10.03 334.83-7.9 336.65-6.7 338.48-5.5 340.93-5.5ZM409.02 0L403.97 0 403.97-27.5 409.02-27.5 409.02 0ZM418.47 0L393.82 0 393.82-4.1 418.47-4.1 418.47 0ZM406.47-23.4L397.47-23.4 397.47-27.5 406.47-27.5 406.47-23.4ZM409.27-32.2L403.62-32.2 403.62-37.65 409.27-37.65 409.27-32.2ZM451.17 0L446.12 0 446.12-17.35Q446.12-20.25 444.47-22.03 442.82-23.8 440.17-23.8L440.17-23.8Q437.12-23.8 434.74-21.58 432.37-19.35 430.97-14.65L430.97-14.65 430.17-20.3Q431.72-24.2 434.64-26.15 437.57-28.1 441.02-28.1L441.02-28.1Q444.12-28.1 446.39-26.78 448.67-25.45 449.92-23.1 451.17-20.75 451.17-17.55L451.17-17.55 451.17 0ZM431.57 0L426.52 0 426.52-27.5 431.32-27.5 431.57-21.3 431.57 0ZM474.07 0L468.37 0 457.62-27.5 462.97-27.5 469.32-10.95 471.27-4.65 473.27-10.95 479.62-27.5 484.77-27.5 474.07 0ZM504.01 0.6L504.01 0.6Q499.76 0.6 496.66-1.13 493.56-2.85 491.91-6.08 490.26-9.3 490.26-13.8L490.26-13.8Q490.26-18.3 491.94-21.5 493.61-24.7 496.74-26.4 499.86-28.1 504.21-28.1L504.21-28.1Q510.86-28.1 514.11-24.43 517.36-20.75 516.96-14.35L516.96-14.35 494.26-14.35 494.31-18.15 511.81-18.1Q511.61-20.75 509.51-22.35 507.41-23.95 504.21-23.95L504.21-23.95Q499.91-23.95 497.61-21.25 495.31-18.55 495.31-13.6L495.31-13.6Q495.31-10.65 496.34-8.38 497.36-6.1 499.31-4.85 501.26-3.6 504.01-3.6L504.01-3.6Q507.26-3.6 509.44-5.15 511.61-6.7 512.11-9.35L512.11-9.35 517.16-9.35Q516.51-4.7 513.01-2.05 509.51 0.6 504.01 0.6ZM548.66 0L543.61 0 543.61-17.35Q543.61-20.25 541.96-22.03 540.31-23.8 537.66-23.8L537.66-23.8Q534.61-23.8 532.24-21.58 529.86-19.35 528.46-14.65L528.46-14.65 527.66-20.3Q529.21-24.2 532.13-26.15 535.06-28.1 538.51-28.1L538.51-28.1Q541.61-28.1 543.88-26.78 546.16-25.45 547.41-23.1 548.66-20.75 548.66-17.55L548.66-17.55 548.66 0ZM529.06 0L524.01 0 524.01-27.5 528.81-27.5 529.06-21.3 529.06 0ZM581.06 0L570.96 0Q568.41 0 566.61-1.03 564.81-2.05 563.91-3.95 563.01-5.85 563.01-8.4L563.01-8.4 563.01-32.7 568.06-35.45 568.06-8.4Q568.06-7.2 568.41-6.2 568.76-5.2 569.78-4.65 570.81-4.1 572.81-4.1L572.81-4.1 581.06-4.1 581.06 0ZM576.66-23.4L556.51-23.4 556.51-27.5 576.66-27.5 576.66-23.4ZM601.15 0.6L601.15 0.6Q596.9 0.6 593.83-1.15 590.75-2.9 589.1-6.13 587.45-9.35 587.45-13.75L587.45-13.75Q587.45-18.25 589.1-21.43 590.75-24.6 593.83-26.35 596.9-28.1 601.2-28.1L601.2-28.1Q607.6-28.1 611.25-24.28 614.9-20.45 614.9-13.75L614.9-13.75Q614.9-9.35 613.25-6.13 611.6-2.9 608.53-1.15 605.45 0.6 601.15 0.6ZM601.2-3.6L601.2-3.6Q605.2-3.6 607.53-6.33 609.85-9.05 609.85-13.75L609.85-13.75Q609.85-18.5 607.53-21.2 605.2-23.9 601.2-23.9L601.2-23.9Q597.15-23.9 594.85-21.2 592.55-18.5 592.55-13.75L592.55-13.75Q592.55-9.05 594.85-6.33 597.15-3.6 601.2-3.6ZM646.25-15.7L641.2-15.7 641.2-19Q641.2-21.15 639.9-22.48 638.6-23.8 636.15-23.8L636.15-23.8Q633.05-23.8 630.6-21.48 628.15-19.15 626.7-14.4L626.7-14.4 626-19.5Q627.1-22.35 628.68-24.25 630.25-26.15 632.33-27.13 634.4-28.1 636.9-28.1L636.9-28.1Q641.05-28.1 643.65-25.73 646.25-23.35 646.25-19L646.25-19 646.25-15.7ZM627.65 0L622.6 0 622.6-27.5 627.35-27.5 627.65-21.25 627.65 0ZM657.9-27.5L663.65-13.9 666.25-7.05 668.85-13.95 674.6-27.5 679.85-27.5 667.1 2.55Q665.95 5.2 664.62 6.73 663.3 8.25 661.65 8.88 660 9.5 657.8 9.5L657.8 9.5 652.9 9.5 652.9 5.4 657.45 5.4Q658.75 5.4 659.67 4.83 660.6 4.25 661.35 3.13 662.1 2 662.85 0.2L662.85 0.2 663.6-1.6 652.65-27.5 657.9-27.5ZM732.79-28.1L732.79-28.1Q736.49-28.1 739.27-26.28 742.04-24.45 743.64-21.2 745.24-17.95 745.24-13.75L745.24-13.75Q745.24-9.6 743.64-6.35 742.04-3.1 739.27-1.25 736.49 0.6 732.79 0.6L732.79 0.6Q729.99 0.6 727.67-0.55 725.34-1.7 723.84-3.7L723.84-3.7 723.84 8.9 718.79 8.9 718.79-27.5 723.59-27.5 723.74-23.75Q725.24-25.75 727.59-26.93 729.94-28.1 732.79-28.1ZM731.69-3.65L731.69-3.65Q734.24-3.65 736.14-4.95 738.04-6.25 739.09-8.53 740.14-10.8 740.14-13.75L740.14-13.75Q740.14-16.75 739.09-19.03 738.04-21.3 736.14-22.58 734.24-23.85 731.69-23.85L731.69-23.85Q729.09-23.85 726.97-22.38 724.84-20.9 723.84-18.35L723.84-18.35 723.84-9.25Q724.84-6.65 726.97-5.15 729.09-3.65 731.69-3.65ZM776.24-15.7L771.19-15.7 771.19-19Q771.19-21.15 769.89-22.48 768.59-23.8 766.14-23.8L766.14-23.8Q763.04-23.8 760.59-21.48 758.14-19.15 756.69-14.4L756.69-14.4 755.99-19.5Q757.09-22.35 758.67-24.25 760.24-26.15 762.32-27.13 764.39-28.1 766.89-28.1L766.89-28.1Q771.04-28.1 773.64-25.73 776.24-23.35 776.24-19L776.24-19 776.24-15.7ZM757.64 0L752.59 0 752.59-27.5 757.34-27.5 757.64-21.25 757.64 0ZM796.14 0.6L796.14 0.6Q791.89 0.6 788.81-1.15 785.74-2.9 784.09-6.13 782.44-9.35 782.44-13.75L782.44-13.75Q782.44-18.25 784.09-21.43 785.74-24.6 788.81-26.35 791.89-28.1 796.19-28.1L796.19-28.1Q802.59-28.1 806.24-24.28 809.89-20.45 809.89-13.75L809.89-13.75Q809.89-9.35 808.24-6.13 806.59-2.9 803.51-1.15 800.44 0.6 796.14 0.6ZM796.19-3.6L796.19-3.6Q800.19-3.6 802.51-6.33 804.84-9.05 804.84-13.75L804.84-13.75Q804.84-18.5 802.51-21.2 800.19-23.9 796.19-23.9L796.19-23.9Q792.14-23.9 789.84-21.2 787.54-18.5 787.54-13.75L787.54-13.75Q787.54-9.05 789.84-6.33 792.14-3.6 796.19-3.6ZM829.49 0.6L829.49 0.6Q825.24 0.6 822.11-1.18 818.99-2.95 817.29-6.18 815.59-9.4 815.59-13.75L815.59-13.75Q815.59-18.2 817.34-21.43 819.09-24.65 822.24-26.38 825.39-28.1 829.59-28.1L829.59-28.1Q832.94-28.1 835.61-26.88 838.29-25.65 839.96-23.4 841.64-21.15 841.89-18.05L841.89-18.05 836.84-18.05Q836.44-20.85 834.46-22.38 832.49-23.9 829.59-23.9L829.59-23.9Q826.89-23.9 824.89-22.68 822.89-21.45 821.79-19.2 820.69-16.95 820.69-13.75L820.69-13.75Q820.69-9 823.11-6.3 825.54-3.6 829.49-3.6L829.49-3.6Q831.29-3.6 832.84-4.3 834.39-5 835.49-6.33 836.59-7.65 836.99-9.4L836.99-9.4 842.09-9.4Q841.59-6.3 839.81-4.08 838.04-1.85 835.36-0.63 832.69 0.6 829.49 0.6ZM861.48 0.6L861.48 0.6Q857.23 0.6 854.13-1.13 851.03-2.85 849.38-6.08 847.73-9.3 847.73-13.8L847.73-13.8Q847.73-18.3 849.41-21.5 851.08-24.7 854.21-26.4 857.33-28.1 861.68-28.1L861.68-28.1Q868.33-28.1 871.58-24.43 874.83-20.75 874.43-14.35L874.43-14.35 851.73-14.35 851.78-18.15 869.28-18.1Q869.08-20.75 866.98-22.35 864.88-23.95 861.68-23.95L861.68-23.95Q857.38-23.95 855.08-21.25 852.78-18.55 852.78-13.6L852.78-13.6Q852.78-10.65 853.81-8.38 854.83-6.1 856.78-4.85 858.73-3.6 861.48-3.6L861.48-3.6Q864.73-3.6 866.91-5.15 869.08-6.7 869.58-9.35L869.58-9.35 874.63-9.35Q873.98-4.7 870.48-2.05 866.98 0.6 861.48 0.6ZM894.43 0.6L894.43 0.6Q890.78 0.6 888.01-0.68 885.23-1.95 883.73-4.28 882.23-6.6 882.18-9.85L882.18-9.85 886.93-9.85Q886.93-6.8 888.98-5.05 891.03-3.3 894.38-3.3L894.38-3.3Q897.23-3.3 898.96-4.38 900.68-5.45 900.68-7.3L900.68-7.3Q900.68-8.75 899.71-9.63 898.73-10.5 897.13-11 895.53-11.5 893.61-11.88 891.68-12.25 889.76-12.78 887.83-13.3 886.23-14.13 884.63-14.95 883.63-16.35 882.63-17.75 882.63-20L882.63-20Q882.63-22.35 883.98-24.18 885.33-26 887.81-27.05 890.28-28.1 893.68-28.1L893.68-28.1Q898.83-28.1 901.96-25.73 905.08-23.35 905.33-19.2L905.33-19.2 900.58-19.2Q900.43-21.6 898.61-22.93 896.78-24.25 893.68-24.25L893.68-24.25Q890.78-24.25 889.26-23.1 887.73-21.95 887.73-20.2L887.73-20.2Q887.73-18.85 888.73-18.07 889.73-17.3 891.33-16.88 892.93-16.45 894.86-16.13 896.78-15.8 898.71-15.3 900.63-14.8 902.23-13.93 903.83-13.05 904.81-11.55 905.78-10.05 905.78-7.65L905.78-7.65Q905.78-3.8 902.68-1.6 899.58 0.6 894.43 0.6ZM926.93 0.6L926.93 0.6Q923.28 0.6 920.5-0.68 917.73-1.95 916.23-4.28 914.73-6.6 914.68-9.85L914.68-9.85 919.43-9.85Q919.43-6.8 921.48-5.05 923.53-3.3 926.88-3.3L926.88-3.3Q929.73-3.3 931.45-4.38 933.18-5.45 933.18-7.3L933.18-7.3Q933.18-8.75 932.2-9.63 931.23-10.5 929.63-11 928.03-11.5 926.1-11.88 924.18-12.25 922.25-12.78 920.33-13.3 918.73-14.13 917.13-14.95 916.13-16.35 915.13-17.75 915.13-20L915.13-20Q915.13-22.35 916.48-24.18 917.83-26 920.3-27.05 922.78-28.1 926.18-28.1L926.18-28.1Q931.33-28.1 934.45-25.73 937.58-23.35 937.83-19.2L937.83-19.2 933.08-19.2Q932.93-21.6 931.1-22.93 929.28-24.25 926.18-24.25L926.18-24.25Q923.28-24.25 921.75-23.1 920.23-21.95 920.23-20.2L920.23-20.2Q920.23-18.85 921.23-18.07 922.23-17.3 923.83-16.88 925.43-16.45 927.35-16.13 929.28-15.8 931.2-15.3 933.13-14.8 934.73-13.93 936.33-13.05 937.3-11.55 938.28-10.05 938.28-7.65L938.28-7.65Q938.28-3.8 935.18-1.6 932.08 0.6 926.93 0.6Z" opacity="1" transform="matrix(1,0,0,1,0,0)" fill="#000000" class="slogan-text-1" data-fill-palette-color="secondary" id="text-1"></path></svg></g></svg></g></svg></g></svg></g><g transform="matrix(1,0,0,1,415.52776126476175,0)"><svg viewBox="0 0 77.50250011572953 77.50250011572953" height="77.50250011572953" width="77.50250011572953"><g><svg xmlns="http://www.w3.org/2000/svg" xmlns:xlink="http://www.w3.org/1999/xlink" version="1.1" x="0" y="0" viewBox="1 1 62 62" style="enable-background:new 0 0 64 64;" xml:space="preserve" height="77.50250011572953" width="77.50250011572953" class="icon-icon-0" data-fill-palette-color="accent" id="icon-0"><g fill="#636365" data-fill-palette-color="accent"><polygon points="15,23 7,23 7,14 10,14 10,12 5,12 5,25 17,25 17,19 15,19  " fill="#000000" data-fill-palette-color="accent"></polygon><polygon points="11,17.586 9.707,16.293 8.293,17.707 11,20.414 18.707,12.707 17.293,11.293  " fill="#000000" data-fill-palette-color="accent"></polygon><path d="M42 49c-2.757 0-5 2.243-5 5s2.243 5 5 5 5-2.243 5-5S44.757 49 42 49zM42 57c-1.654 0-3-1.346-3-3s1.346-3 3-3 3 1.346 3 3S43.654 57 42 57z" fill="#000000" data-fill-palette-color="accent"></path><path d="M60.164 7.013L49.239 4.828l-4.522 20.096L23 20.58V1H7.586L1 7.586V29h11.02L9.182 42.057c-1.244 0.228-2.266 1.159-2.583 2.423l-0.507 2.028C6.031 46.753 6 47.005 6 47.258c0 1.492 1.064 2.771 2.531 3.043l24.512 4.539C33.468 59.41 37.321 63 42 63c4.962 0 9-4.037 9-9 0-1.452-0.354-2.82-0.967-4.035l5.021-22.094-3.203-6.356 1.951-8.535 4.756 0.951C58.786 13.977 59.019 14 59.25 14h0.222C61.417 14 63 12.417 63 10.472 63 8.796 61.807 7.342 60.164 7.013zM27.6 23.54l3.033 0.607-1.341 4.692-3.033-0.607L27.6 23.54zM32.6 24.54l3.033 0.607-1.341 4.692-3.033-0.607L32.6 24.54zM7 4.414V7H4.414L7 4.414zM3 9h6V3h12v24H3V9zM23 29v-6.38l2.633 0.527-1.892 6.622 11.967 2.394L37.6 25.54l6.678 1.336-4.121 18.316c-1.524 0.319-2.903 1.028-4.039 2.012l-24.925-4.985L14.067 29H23zM8 47.258c0-0.09 0.011-0.179 0.033-0.266l0.507-2.027c0.163-0.649 0.837-1.07 1.485-0.94l24.543 4.909c-0.776 1.134-1.292 2.456-1.48 3.881l-24.193-4.48C8.376 48.238 8 47.785 8 47.258zM42 61c-3.86 0-7-3.141-7-7s3.14-7 7-7 7 3.141 7 7S45.86 61 42 61zM46.24 46.065l1.311-5.735 2.508 0.501-1.577 6.94C47.829 47.093 47.075 46.514 46.24 46.065zM49.649 31.149l2.496 0.499-1.644 7.232-2.505-0.501L49.649 31.149zM52.945 28.129l-0.357 1.569-2.494-0.499 1.058-4.627L52.945 28.129zM44.357 45.324c-0.676-0.184-1.381-0.291-2.11-0.311l7.394-32.865 2.198 0.44L44.357 45.324zM59.472 12H59.25c-0.101 0-0.201-0.01-0.3-0.03l-8.87-1.774 0.68-3.024 9.01 1.802C60.483 9.117 61 9.747 61 10.472 61 11.314 60.314 12 59.472 12z" fill="#000000" data-fill-palette-color="accent"></path></g></svg></g></svg></g></svg></g><defs></defs></svg><rect width="395.52" height="62.17425429413262" fill="none" stroke="none" visibility="hidden"></rect></g></svg></g></svg>